<svg version="1.0" xmlns="http://www.w3.org/2000/svg"
 width="357.000000pt" height="346.000000pt" viewBox="0 0 357.000000 346.000000"
 preserveAspectRatio="xMidYMid meet">
<g transform="translate(0.000000,346.000000) scale(0.100000,-0.100000)" fill="#000000" stroke="none">
<path d="M2022 3269 c-12 -57 -22 -109 -22 -116 0 -15 18 -20 145 -42 76 -13
108 -15 110 -7 5 22 34 162 41 197 l6 37 -54 12 c-29 6 -87 14 -128 17 l-75 5
-23 -103z"/>
<path d="M1698 3301 c-58 -3 -109 -9 -113 -12 -3 -4 -3 -61 1 -128 l7 -120
121 6 c67 3 123 7 125 9 8 7 -15 248 -24 249 -5 1 -58 -1 -117 -4z"/>
<path d="M1116 3224 c-55 -24 -101 -46 -103 -47 -1 -2 16 -41 38 -87 23 -47
45 -95 50 -107 11 -29 15 -29 96 7 128 57 143 65 143 72 0 5 -21 53 -46 108
-32 67 -52 100 -63 99 -9 0 -61 -20 -115 -45z"/>
<path d="M2510 3141 c0 -5 -25 -52 -56 -105 -31 -53 -54 -99 -51 -103 4 -3 24
-15 45 -27 124 -67 163 -86 174 -86 7 0 19 14 27 31 7 17 31 62 52 101 22 39
38 72 37 74 -2 1 -43 23 -93 49 -49 27 -97 54 -106 62 -18 15 -29 17 -29 4z"/>
<path d="M1961 2989 c-30 -142 -30 -145 22 -157 67 -17 196 -36 201 -31 5 4
44 190 49 228 2 10 -26 19 -103 32 -58 10 -115 21 -126 23 -20 5 -23 -2 -43
-95z"/>
<path d="M1250 2952 c-58 -25 -107 -47 -109 -49 -4 -3 22 -67 76 -189 l18 -41
110 47 c60 26 111 52 112 57 5 13 -81 216 -92 219 -6 1 -57 -19 -115 -44z"/>
<path d="M1700 2993 c-111 -5 -110 -5 -110 -71 0 -31 3 -87 7 -124 l6 -68 41
0 c23 0 78 3 124 7 l82 6 0 97 c0 54 -3 112 -6 129 -6 28 -10 31 -43 29 -20
-1 -65 -3 -101 -5z"/>
<path d="M708 2863 l-87 -88 84 -89 85 -89 47 44 c26 24 67 62 90 83 24 22 43
44 43 50 -1 14 -154 176 -166 176 -5 0 -48 -39 -96 -87z"/>
<path d="M2308 2794 c-32 -58 -58 -111 -58 -118 0 -8 8 -16 18 -20 9 -3 55
-28 102 -55 65 -38 88 -47 97 -38 6 7 30 48 53 92 24 44 47 84 51 89 19 21 6
34 -78 81 -49 27 -97 54 -108 61 -19 12 -24 5 -77 -92z"/>
<path d="M2910 2816 c-47 -41 -85 -78 -85 -84 0 -12 137 -182 146 -182 13 0
174 142 174 153 0 12 -136 186 -145 186 -3 0 -43 -33 -90 -73z"/>
<path d="M1917 2723 c-9 -37 -19 -87 -23 -111 -8 -49 -24 -66 -24 -25 0 15 -3
45 -6 66 l-7 37 -62 0 c-34 0 -90 -3 -124 -6 l-61 -7 0 -56 c0 -31 3 -87 7
-124 6 -63 8 -68 27 -63 12 3 69 9 129 12 l107 7 0 42 0 42 120 -27 120 -27 9
36 c20 76 44 212 38 217 -3 4 -46 14 -94 24 -48 10 -100 21 -114 25 -24 6 -26
4 -42 -62z"/>
<path d="M922 2640 c-46 -44 -82 -84 -80 -89 1 -6 39 -47 82 -91 l79 -80 25
22 c93 85 152 142 152 150 0 13 -151 168 -164 168 -6 -1 -49 -37 -94 -80z"/>
<path d="M1381 2675 c-57 -24 -105 -46 -108 -48 -5 -5 91 -232 98 -232 17 0
219 91 219 99 0 26 -87 226 -98 225 -4 0 -54 -20 -111 -44z"/>
<path d="M2677 2633 c-94 -81 -92 -73 -45 -128 9 -11 40 -48 68 -83 l51 -63
47 40 c26 21 66 56 90 77 l42 39 -70 83 c-38 46 -70 88 -70 92 0 27 -37 8
-113 -57z"/>
<path d="M2159 2538 c-79 -148 -82 -127 34 -191 56 -31 104 -54 107 -52 10 6
114 214 110 218 -8 6 -198 107 -202 107 -2 0 -24 -37 -49 -82z"/>
<path d="M328 2522 c-9 -20 -28 -66 -43 -102 -14 -36 -28 -70 -31 -76 -3 -7
15 -19 43 -30 26 -9 53 -20 58 -24 30 -20 127 -52 135 -44 5 5 25 50 45 99 20
50 39 95 42 102 4 11 -45 37 -127 68 -19 7 -51 20 -71 28 l-36 16 -15 -37z"/>
<path d="M2458 2441 l-97 -79 74 -92 c40 -50 76 -92 80 -92 6 0 112 78 168
124 l28 23 -76 98 c-42 53 -77 97 -78 97 -1 0 -46 -36 -99 -79z"/>
<path d="M1137 2426 c-48 -47 -87 -88 -87 -93 1 -10 155 -173 164 -173 11 0
176 163 176 173 0 5 -10 19 -22 31 -13 12 -48 50 -78 84 -30 34 -57 62 -60 62
-3 0 -45 -38 -93 -84z"/>
<path d="M3142 2413 c-103 -46 -104 -47 -98 -76 3 -17 17 -54 31 -83 14 -29
30 -65 35 -80 9 -22 14 -25 38 -19 34 8 184 73 196 85 4 5 1 23 -8 42 -10 18
-31 66 -48 106 -16 39 -33 72 -36 72 -4 0 -54 -21 -110 -47z"/>
<path d="M620 2398 c-8 -18 -26 -60 -40 -93 -44 -98 -45 -101 -13 -113 15 -6
64 -27 108 -46 92 -42 90 -43 126 53 11 31 24 60 28 66 5 5 13 25 19 43 10 30
9 33 -13 42 -13 5 -53 22 -88 39 -101 47 -112 48 -127 9z"/>
<path d="M1770 2399 c-142 -14 -133 -8 -126 -92 4 -40 9 -98 12 -131 l6 -59
82 7 c44 4 98 9 120 13 l38 6 -6 96 c-9 132 -16 171 -29 170 -7 -1 -50 -6 -97
-10z"/>
<path d="M2024 2313 c-52 -92 -95 -176 -92 -178 8 -8 197 -105 204 -105 9 0
114 197 114 212 0 7 -171 99 -195 106 -5 1 -20 -15 -31 -35z"/>
<path d="M2865 2299 c-60 -27 -110 -52 -110 -57 0 -7 85 -212 91 -221 4 -5
206 81 222 95 6 4 -79 220 -89 228 -2 1 -53 -19 -114 -45z"/>
<path d="M888 2253 c-14 -32 -37 -84 -51 -115 -14 -32 -22 -58 -17 -58 6 0 55
-20 110 -45 55 -25 104 -45 109 -45 5 0 22 26 36 58 15 31 35 75 46 98 30 65
40 55 -135 133 -37 17 -69 31 -70 31 -1 0 -13 -26 -28 -57z"/>
<path d="M1357 2207 l-88 -82 84 -87 c46 -49 87 -88 93 -88 5 0 46 36 92 81
l84 80 -44 47 c-66 71 -101 106 -119 119 -13 10 -30 -1 -102 -70z"/>
<path d="M2576 2165 c-60 -30 -111 -56 -113 -58 -2 -2 20 -52 49 -111 43 -87
56 -106 72 -104 19 3 21 -6 33 -116 7 -65 15 -121 17 -124 3 -2 56 0 118 4
l113 9 -3 85 c-1 47 -5 105 -8 129 l-6 43 -111 -6 -112 -6 83 40 c45 22 82 44
82 49 0 5 -11 31 -24 58 -14 26 -37 74 -51 106 -15 31 -27 57 -28 57 -1 0 -51
-25 -111 -55z"/>
<path d="M2280 2051 l-116 -57 55 -117 c31 -64 61 -117 68 -117 8 0 35 11 61
24 26 13 73 36 105 51 31 14 57 32 56 38 0 7 -26 62 -57 124 l-57 112 -115
-58z"/>
<path d="M274 2053 c-8 -5 -12 -52 -13 -130 l-2 -122 125 -3 125 -3 3 123 c2
68 -1 126 -6 129 -15 9 -220 15 -232 6z"/>
<path d="M566 1963 c-4 -37 -9 -96 -12 -129 l-5 -62 88 -6 c48 -4 104 -9 124
-12 l37 -5 6 98 c4 54 10 112 12 129 6 31 4 32 -33 37 -21 4 -77 9 -125 12
l-86 7 -6 -69z"/>
<path d="M875 1988 c-5 -16 -25 -186 -25 -215 0 -19 7 -23 52 -29 65 -9 47
-16 -77 -34 -49 -7 -94 -16 -98 -20 -7 -6 27 -227 36 -237 3 -2 105 14 192 31
l30 6 -30 -14 c-16 -9 -38 -15 -47 -16 -29 0 -29 -16 -3 -87 15 -37 31 -82 36
-100 13 -42 20 -46 63 -28 19 8 40 15 47 15 10 0 -50 -51 -134 -114 -22 -16
-36 -34 -33 -42 3 -7 33 -51 68 -97 l62 -85 36 26 c19 15 55 43 80 63 25 20
59 44 75 55 l30 19 -32 -41 c-18 -23 -33 -44 -33 -47 0 -6 167 -127 185 -133
7 -3 29 18 50 46 21 28 39 49 42 47 2 -2 -7 -38 -20 -78 -14 -41 -27 -88 -31
-104 l-7 -31 113 -35 c75 -24 115 -33 120 -26 3 6 21 56 40 111 l33 101 3 -82
3 -82 124 -3 125 -3 0 128 0 127 -125 0 -125 0 0 -35 0 -34 -47 15 c-27 8 -79
24 -118 35 -38 11 -71 22 -73 24 -2 2 7 18 19 35 l24 31 -25 20 c-26 21 -138
100 -156 111 -6 4 -27 -15 -48 -42 -21 -28 -41 -48 -46 -45 -13 8 -130 165
-130 174 0 5 21 17 46 27 33 12 44 22 40 33 -13 42 -69 187 -75 193 -3 3 -24
0 -46 -8 -22 -7 -45 -14 -51 -14 -6 0 -19 46 -28 102 -10 56 -21 109 -24 116
-4 11 7 13 62 7 52 -6 66 -5 66 6 1 8 7 63 14 123 9 76 9 109 2 112 -14 5
-197 34 -214 34 -7 0 -15 -6 -17 -12z"/>
<path d="M3272 1963 l-74 -4 7 -97 c3 -53 9 -109 11 -124 l6 -28 103 0 c57 0
110 3 119 6 18 7 21 80 10 193 l-7 61 -51 -2 c-28 -1 -84 -4 -124 -5z"/>
<path d="M1176 1952 c-7 -12 -29 -242 -24 -247 7 -7 230 -37 235 -32 5 6 35
248 31 253 -4 3 -86 15 -195 27 -24 3 -45 2 -47 -1z"/>
<path d="M3005 1934 c-54 -8 -101 -17 -103 -18 -4 -5 26 -237 31 -242 4 -5
229 24 234 30 2 2 -2 57 -9 122 -15 139 -2 130 -153 108z"/>
<path d="M2256 1679 c-3 -13 -12 -63 -21 -112 -9 -48 -18 -93 -21 -100 -3 -10
22 -19 93 -35 158 -35 144 -39 164 48 10 41 21 98 24 126 l7 51 -89 18 c-148
30 -151 30 -157 4z"/>
<path d="M527 1670 c-60 -10 -111 -20 -113 -23 -3 -3 2 -45 10 -93 9 -49 16
-102 16 -117 0 -15 6 -30 14 -33 14 -5 236 23 244 31 3 2 -4 60 -14 127 -14
92 -23 123 -34 124 -8 1 -64 -6 -123 -16z"/>
<path d="M220 1631 c-101 -15 -105 -17 -104 -41 0 -24 26 -212 29 -217 2 -3
238 27 242 31 2 2 -23 174 -33 224 -2 12 -10 21 -17 21 -6 -1 -59 -9 -117 -18z"/>
<path d="M1325 1635 c-16 -8 -61 -26 -100 -41 -38 -15 -71 -28 -73 -29 -3 -3
81 -212 94 -233 1 -2 55 15 120 37 65 23 119 41 121 41 2 0 -26 -38 -62 -85
-62 -82 -75 -105 -57 -105 5 0 46 -29 93 -65 l84 -64 20 26 c46 61 116 165
113 168 -12 12 -183 135 -187 135 -3 0 -26 52 -51 115 -49 124 -53 128 -115
100z"/>
<path d="M2543 1548 c-12 -57 -25 -112 -28 -124 -6 -19 0 -23 42 -34 97 -25
183 -37 192 -26 10 14 56 224 50 231 -3 2 -50 13 -105 24 -54 11 -106 22 -114
25 -12 5 -20 -14 -37 -96z"/>
<path d="M2855 1553 c-4 -21 -15 -74 -25 -118 -10 -44 -16 -83 -12 -87 4 -4
58 -17 120 -30 95 -19 114 -21 121 -9 12 19 54 221 48 228 -4 4 -216 50 -244
53 -1 0 -5 -17 -8 -37z"/>
<path d="M3165 1498 c-34 -151 -42 -204 -31 -210 14 -9 181 -48 206 -48 18 0
25 21 65 206 5 24 -14 32 -143 59 -93 19 -91 19 -97 -7z"/>
<path d="M2092 1354 c-56 -41 -102 -79 -102 -82 0 -13 142 -182 152 -182 11 0
198 138 198 146 0 3 -19 29 -42 58 -24 29 -57 72 -74 95 l-31 41 -101 -76z"/>
<path d="M703 1377 c-56 -23 -107 -47 -113 -53 -9 -9 0 -39 31 -115 23 -57 44
-106 45 -108 2 -2 55 18 119 45 75 32 115 54 115 64 0 8 -10 35 -21 60 -11 25
-30 69 -41 98 -11 28 -22 52 -26 51 -4 0 -53 -19 -109 -42z"/>
<path d="M2486 1264 c-55 -100 -58 -107 -40 -118 10 -6 39 -23 64 -38 68 -42
129 -72 133 -67 8 9 104 185 110 201 4 13 -10 25 -65 53 -39 20 -85 45 -102
56 -17 10 -33 19 -36 19 -3 0 -32 -48 -64 -106z"/>
<path d="M400 1249 c-52 -28 -96 -54 -98 -59 -4 -12 100 -210 111 -210 16 0
207 103 207 112 0 19 -105 208 -115 207 -5 0 -53 -23 -105 -50z"/>
<path d="M1709 1268 c0 -2 -3 -58 -6 -125 l-5 -123 49 0 c28 0 84 -3 126 -6
l77 -7 0 132 0 131 -120 0 c-66 0 -120 -1 -121 -2z"/>
<path d="M2753 1126 c-29 -57 -53 -108 -53 -114 0 -11 158 -99 196 -108 20 -5
27 4 67 83 69 137 73 121 -46 186 -57 31 -106 57 -108 57 -2 0 -28 -47 -56
-104z"/>
<path d="M2312 1153 c-22 -21 -61 -54 -86 -73 -25 -19 -45 -38 -46 -43 0 -10
142 -187 151 -187 18 0 188 153 182 163 -15 25 -146 177 -152 177 -4 0 -26
-17 -49 -37z"/>
<path d="M760 1044 c-36 -25 -80 -55 -97 -67 -18 -12 -33 -25 -33 -28 0 -5
132 -194 143 -206 3 -2 24 11 48 29 24 18 70 51 102 72 31 22 56 44 54 49 -4
14 -141 197 -147 197 -3 -1 -34 -21 -70 -46z"/>
<path d="M3029 1011 c-24 -42 -51 -87 -61 -100 -10 -13 -18 -27 -18 -31 0 -10
194 -120 212 -120 17 0 123 199 112 210 -5 5 -52 33 -105 63 l-97 54 -43 -76z"/>
<path d="M2075 953 c-60 -20 -111 -37 -112 -37 -1 -1 16 -56 38 -123 l40 -121
57 18 c31 11 75 24 97 29 81 21 81 21 39 154 -21 64 -40 117 -43 116 -3 0 -55
-17 -116 -36z"/>
<path d="M2462 894 c-82 -66 -91 -77 -80 -92 58 -78 131 -172 135 -172 9 0 67
43 130 96 l62 52 -70 91 c-38 49 -73 92 -77 95 -4 2 -49 -29 -100 -70z"/>
<path d="M1098 933 c-9 -16 -42 -62 -72 -104 l-56 -76 100 -72 c55 -39 104
-71 108 -71 5 0 19 15 32 33 50 66 110 156 110 164 -1 9 -171 140 -192 148 -7
3 -21 -7 -30 -22z"/>
<path d="M550 879 c-14 -11 -40 -32 -59 -47 -75 -59 -91 -74 -91 -83 0 -13
141 -184 152 -184 9 0 186 137 187 145 2 10 -140 185 -152 187 -7 2 -23 -6
-37 -18z"/>
<path d="M2643 669 c-48 -39 -89 -74 -91 -78 -1 -4 7 -18 18 -32 30 -35 50
-58 93 -112 21 -26 42 -47 47 -47 13 0 180 141 180 152 0 10 -142 186 -152
187 -4 1 -47 -31 -95 -70z"/>
<path d="M864 609 l-68 -102 31 -26 c17 -14 48 -37 68 -51 20 -14 49 -35 65
-48 l29 -23 71 101 c53 74 69 104 61 114 -6 6 -50 40 -100 74 l-89 62 -68
-101z"/>
<path d="M2215 692 c-22 -10 -66 -27 -98 -37 -68 -21 -67 -11 -12 -157 21 -54
43 -98 50 -98 12 0 200 66 216 75 4 3 -1 26 -11 53 -11 26 -30 76 -44 112 -28
74 -40 80 -101 52z"/>
<path d="M1332 579 c-18 -67 -30 -125 -25 -130 4 -4 59 -21 121 -37 l112 -29
11 41 c6 23 19 70 30 105 32 105 38 98 -133 145 -32 9 -63 19 -70 21 -9 4 -23
-31 -46 -116z"/>
<path d="M1698 568 c-3 -68 -4 -125 -1 -128 2 -2 60 -6 128 -8 l125 -4 0 131
0 131 -124 0 -123 0 -5 -122z"/>
<path d="M2268 398 c-63 -24 -108 -46 -108 -54 0 -7 7 -28 15 -46 8 -18 26
-64 41 -103 15 -38 30 -74 35 -79 7 -8 115 28 201 67 l27 12 -46 123 c-25 67
-49 122 -52 121 -3 -1 -54 -19 -113 -41z"/>
<path d="M1265 321 c-14 -47 -30 -100 -35 -117 -18 -56 -15 -60 68 -83 42 -13
93 -28 112 -36 l34 -13 33 106 c18 57 34 118 36 135 2 30 1 31 -78 54 -44 13
-95 28 -112 32 l-33 9 -25 -87z"/>
<path d="M1702 278 l3 -123 123 -3 122 -3 0 126 0 125 -125 0 -126 0 3 -122z"/>
</g>
</svg>
